<?xml version="1.0" encoding="UTF-8" standalone="no"?>
<!-- Created with Inkscape (http://www.inkscape.org/) -->

<svg
   xmlns:dc="http://purl.org/dc/elements/1.1/"
   xmlns:cc="http://creativecommons.org/ns#"
   xmlns:rdf="http://www.w3.org/1999/02/22-rdf-syntax-ns#"
   xmlns:svg="http://www.w3.org/2000/svg"
   xmlns="http://www.w3.org/2000/svg"
   xmlns:xlink="http://www.w3.org/1999/xlink"
   xmlns:sodipodi="http://sodipodi.sourceforge.net/DTD/sodipodi-0.dtd"
   xmlns:inkscape="http://www.inkscape.org/namespaces/inkscape"
   id="svg8"
   version="1.1"
   viewBox="0 0 105.83333 95.250008"
   height="360"
   width="400"
   inkscape:version="0.92.4 (unknown)"
   sodipodi:docname="cat-single-04.svg">
  <defs
     id="defs2">
    <linearGradient
       inkscape:collect="always"
       id="linearGradient12632">
      <stop
         style="stop-color:#f2f2f2;stop-opacity:1;"
         offset="0"
         id="stop12628" />
      <stop
         style="stop-color:#f2f2f2;stop-opacity:0;"
         offset="1"
         id="stop12630" />
    </linearGradient>
    <linearGradient
       inkscape:collect="always"
       xlink:href="#linearGradient12632"
       id="linearGradient12634"
       x1="44.168976"
       y1="915.77942"
       x2="45.743179"
       y2="880.47089"
       gradientUnits="userSpaceOnUse" />
    <filter
       style="color-interpolation-filters:sRGB;"
       inkscape:label="Blur"
       id="filter14343">
      <feGaussianBlur
         stdDeviation="1.32 1.12"
         result="fbSourceGraphic"
         id="feGaussianBlur14341" />
      <feColorMatrix
         result="fbSourceGraphicAlpha"
         in="fbSourceGraphic"
         values="0 0 0 -1 0 0 0 0 -1 0 0 0 0 -1 0 0 0 0 1 0"
         id="feColorMatrix14345" />
      <feGaussianBlur
         id="feGaussianBlur14347"
         stdDeviation="1.32 1.12"
         result="blur"
         in="fbSourceGraphic" />
    </filter>
  </defs>
  <sodipodi:namedview
     id="base"
     pagecolor="#ffffff"
     bordercolor="#666666"
     borderopacity="1.0"
     inkscape:pageopacity="0.0"
     inkscape:pageshadow="2"
     inkscape:zoom="2.8284271"
     inkscape:cx="236.96291"
     inkscape:cy="129.60347"
     inkscape:document-units="px"
     inkscape:current-layer="layer8"
     showgrid="true"
     units="px"
     inkscape:window-width="1920"
     inkscape:window-height="1009"
     inkscape:window-x="0"
     inkscape:window-y="34"
     inkscape:window-maximized="1"
     showguides="true">
    <inkscape:grid
       type="xygrid"
       id="grid282"
       empspacing="360"
       empcolor="#fa0300"
       empopacity="0.25098039"
       dotted="false"
       visible="true"
       snapvisiblegridlinesonly="true"
       enabled="true"
       originx="0" />
  </sodipodi:namedview>
  <metadata
     id="metadata5">
    <rdf:RDF>
      <cc:Work
         rdf:about="">
        <dc:format>image/svg+xml</dc:format>
        <dc:type
           rdf:resource="http://purl.org/dc/dcmitype/StillImage" />
        <dc:title></dc:title>
      </cc:Work>
    </rdf:RDF>
  </metadata>
  <g
     inkscape:groupmode="layer"
     id="layer8"
     inkscape:label="1"
     style="display:inline"
     transform="translate(0,-857.25003)">
    <path
       style="display:inline;opacity:1;fill:#1a1a1a;stroke:none;stroke-width:0.26458335px;stroke-linecap:butt;stroke-linejoin:miter;stroke-opacity:1"
       d="m 30.255852,925.62931 c -2.364387,5.1116 -8.241881,8.5627 -7.913026,15.1218 0,0 0.267271,5.3453 7.015827,5.8799 4.626956,0.1626 9.997976,-1.1355 12.428036,-5.4122 -0.49877,9.4063 11.94609,7.8515 15.56845,6.949 7.50933,-2.0121 13.73772,-11.0576 13.73772,-11.0576 6.00782,0.1603 9.07011,-0.9284 9.30766,-3.9215 -0.18121,-4.7243 -7.18177,-3.742 -8.31547,-3.6853 -1.22842,0.756 2.59859,-3.8741 2.59859,-3.8741 z"
       id="path14203"
       inkscape:connector-curvature="0"
       sodipodi:nodetypes="cccccccccc" />
    <path
       sodipodi:nodetypes="cccccccccc"
       inkscape:connector-curvature="0"
       id="path14189"
       d="m 30.255852,925.62931 c -2.364387,5.1116 -8.241881,8.5627 -7.913026,15.1218 0,0 0.267271,5.3453 7.015827,5.8799 4.626956,0.1626 9.997976,-1.1355 12.428036,-5.4122 -0.49877,9.4063 11.94609,7.8515 15.56845,6.949 7.50933,-2.0121 13.73772,-11.0576 13.73772,-11.0576 6.00782,0.1603 9.07011,-0.9284 9.30766,-3.9215 -0.18121,-4.7243 -7.18177,-3.742 -8.31547,-3.6853 -1.22842,0.756 2.59859,-3.8741 2.59859,-3.8741 z"
       style="display:inline;opacity:1;fill:#1a1a1a;stroke:none;stroke-width:0.26458335px;stroke-linecap:butt;stroke-linejoin:miter;stroke-opacity:1;filter:url(#filter14343)" />
    <path
       style="display:inline;opacity:1;fill:#1a1a1a;stroke:none;stroke-width:2.09260821"
       d="m 69.579871,880.91074 c 3.673015,11.02249 -4.630966,22.90147 -16.78084,26.01267 -12.149874,3.1111 -24.33567,-3.4909 -27.21774,-14.74616 -2.88207,-11.25522 3.706106,-25.46484 17.916738,-26.614 14.599941,-1.18064 22.732048,5.29498 26.081842,15.34749 z"
       id="path22"
       inkscape:connector-curvature="0"
       sodipodi:nodetypes="sssss" />
    <path
       style="display:inline;opacity:1;fill:#1a1a1a;stroke:none;stroke-width:2"
       d="m 53.073067,893.72171 c -0.86577,-0.006 -1.742678,0.0458 -2.627231,0.15762 -14.166231,1.79058 -24.568306,7.03648 -22.300449,18.52088 -3e-6,4.382 0.704673,9.0339 2.110465,13.2291 h 44.427781 c 0.199697,-1.8558 0.307872,-4.0888 0.33073,-6.8037 1.594593,-12.184 -8.954779,-25.02087 -21.941296,-25.1039 z"
       id="path24"
       inkscape:connector-curvature="0" />
    <path
       style="display:inline;opacity:1;fill:#1a1a1a;stroke:none;stroke-width:0.26458335px;stroke-linecap:butt;stroke-linejoin:miter;stroke-opacity:1"
       d="m 26.255434,880.27204 c 0,0 -4.29875,-2.64752 -4.913691,-9.82737 0,0 12.405516,0.24912 13.843376,-0.33074 z"
       id="path41"
       inkscape:connector-curvature="0"
       sodipodi:nodetypes="cscc" />
    <path
       sodipodi:nodetypes="cscc"
       inkscape:connector-curvature="0"
       id="path43"
       d="m 51.151609,867.35186 c 0,0 -0.83901,-0.82665 0.56493,-4.67791 0,0 7.14868,3.71616 7.00301,6.84611 z"
       style="display:inline;opacity:1;fill:#1a1a1a;stroke:none;stroke-width:0.26458335px;stroke-linecap:butt;stroke-linejoin:miter;stroke-opacity:1" />
    <path
       style="display:inline;opacity:1;fill:url(#linearGradient12634);stroke:none;stroke-width:1.62759686;fill-opacity:1"
       d="m 46.087445,898.24131 c -0.984576,0 -2.017258,0.066 -3.099552,0.2114 -9.38313,1.2643 -14.182847,9.7719 -11.761557,22.9216 0.279291,1.5168 0.695558,2.9379 1.222666,4.255 h 28.170889 c 2.132844,-3.5455 3.111418,-7.7745 2.020549,-12.3036 -2.007407,-8.3344 -7.035416,-15.0553 -16.552995,-15.0844 z"
       id="path48"
       inkscape:connector-curvature="0" />
    <path
       sodipodi:nodetypes="sssss"
       inkscape:connector-curvature="0"
       id="path46"
       d="m 60.989199,889.63278 c 0.05375,13.73307 -1.515894,14.69239 -10.078143,15.98863 -12.692417,1.9215 -21.629714,-2.5363 -23.71561,-10.7243 -2.662975,-10.4533 2.615898,-17.21623 12.935623,-18.22133 12.6968,-1.23661 20.827971,5.25105 20.85813,12.957 z"
       style="display:inline;opacity:1;fill:#1a1a1a;stroke:none;stroke-width:1.52186775" />
    <path
       sodipodi:nodetypes="cscc"
       inkscape:connector-curvature="0"
       id="path207"
       d="m 26.468265,878.41765 c -1.484054,-1.14964 -3.007501,-2.87912 -3.147556,-5.90981 0,0 2.789998,1.0613 6.926346,0.355 0,0 -1.827014,1.55949 -3.77879,5.55481 z"
       style="display:inline;opacity:1;fill:#e6e6e6;stroke:none;stroke-width:0.15180719px;stroke-linecap:butt;stroke-linejoin:miter;stroke-opacity:1" />
    <path
       style="display:inline;opacity:1;fill:#ffffff;stroke:none;stroke-width:0.15180719px;stroke-linecap:butt;stroke-linejoin:miter;stroke-opacity:1"
       d="m 50.630309,870.51103 c 1.08257,-2.2705 1.77368,-4.66685 1.77368,-4.66685 0,0 2.95366,0.59183 4.84502,6.02687 0,0 -0.97855,-0.82446 -6.6187,-1.36002 z"
       id="path209"
       inkscape:connector-curvature="0"
       sodipodi:nodetypes="cccc" />
    <path
       inkscape:connector-curvature="0"
       style="display:inline;opacity:1;fill:#ececec;stroke:none;stroke-width:0.26458335px;stroke-linecap:butt;stroke-linejoin:miter;stroke-opacity:1"
       d="m 76.712966,929.57531 -0.982884,0.6051 1.168921,0.6548 -1.075388,0.9358 1.122412,0.7948 -1.215945,1.0759 1.075385,0.7483 -0.841808,0.7953 0.841808,0.6547 -1.122412,0.7953 0.319362,0.2129 c 2.780568,-0.4851 4.237567,-1.636 4.39818,-3.6597 -0.08881,-2.3154 -1.816206,-3.2585 -3.687631,-3.6132 z"
       id="path210" />
    <path
       style="display:inline;opacity:1;fill:#e6e6e6;stroke:none;stroke-width:0.79375005"
       d="m 16.276882,923.72041 59.529306,-0.1023 -20.003432,13.5493 -55.80569687,-2.4588 z"
       id="rect5009"
       inkscape:connector-curvature="0"
       sodipodi:nodetypes="ccccc" />
    <path
       inkscape:connector-curvature="0"
       style="display:inline;opacity:1;fill:#999999;stroke:none;stroke-width:0.79375011;fill-opacity:1"
       d="m 7.8613541,939.67601 1.1554857,8.2723 c 0.016219,0.8832 1.6344532,1.3333 3.5739412,1.3333 1.939539,0 3.506735,-0.7477 3.506764,-1.6309 l -0.824756,-7.644 z"
       id="rect5016" />
    <path
       inkscape:connector-curvature="0"
       style="display:inline;opacity:1;fill:#808080;stroke:none;stroke-width:0.94000787"
       d="m 49.054707,939.71521 0.691431,10.7632 c -0.04224,1.1405 1.67954,1.8517 3.780131,2.0082 2.1009,0.1517 3.848904,-0.6814 3.908803,-1.8206 l -0.375687,-9.9265 z"
       id="path5023" />
    <path
       sodipodi:nodetypes="cccccc"
       inkscape:connector-curvature="0"
       id="path5031"
       d="m 69.229189,930.72051 0.0703,9.1058 c 0.43244,1.2698 2.70319,1.2103 2.70319,1.2103 0.92524,-0.03 2.6206,-0.4277 2.73007,-1.1668 l -0.008,-11.5476 z"
       style="display:inline;opacity:1;fill:#808080;stroke:none;stroke-width:0.84380418" />
    <path
       style="display:inline;opacity:1;fill:none;stroke:#1a1a1a;stroke-width:0.26458335px;stroke-linecap:butt;stroke-linejoin:miter;stroke-opacity:1"
       d="m 35.806529,898.08821 c 0,0 0.70158,1.5702 2.03793,1.4032 1.33635,-0.1671 1.2891,-1.8542 1.2891,-1.8542 0.56423,1.5076 4.09143,2.546 4.74117,-1.7039"
       id="path62-7"
       inkscape:connector-curvature="0"
       sodipodi:nodetypes="cccc" />
    <path
       style="display:inline;opacity:1;fill:#f2f2f2;stroke:none;stroke-width:2.58888435"
       inkscape:transform-center-x="0.07984132"
       inkscape:transform-center-y="0.088569758"
       d="m 39.021669,897.39361 c -0.20939,0.039 -0.39803,-0.039 -0.56146,-0.1762 -0.17669,-0.1478 -0.49322,-0.4042 -0.39202,-0.6111 0,0 1.60529,-0.33 1.73035,-0.2993 0.16426,0.096 -0.12826,0.487 -0.2937,0.7152 -0.12107,0.1669 -0.28049,0.3332 -0.48317,0.3714 z"
       id="path69-5"
       inkscape:connector-curvature="0"
       sodipodi:nodetypes="ssccss" />
    <g
       transform="translate(0,-105.83329)"
       style="display:inline;opacity:1"
       id="g324">
      <path
         style="display:inline;opacity:1;fill:#f9f9f9;stroke:#1a1a1a;stroke-width:0.17280796px;stroke-linecap:butt;stroke-linejoin:miter;stroke-opacity:1"
         d="m 36.197429,999.59356 c 0,0 -0.57441,-1.13557 -2.64558,-0.79876 -1.24462,0.20245 -1.520847,0.73217 -1.520847,0.73217 0,0 0.114907,0.0263 0.201317,0.0904 0.32926,0.24442 1.17454,0.84433 2.24104,0.59333 1.29196,-0.34579 1.47082,-0.56567 1.47082,-0.56567 z"
         id="path60"
         inkscape:connector-curvature="0"
         sodipodi:nodetypes="cscsccc" />
      <path
         inkscape:connector-curvature="0"
         id="path182"
         d="m 33.629899,998.78516 a 0.87855778,0.76484455 63.074447 0 0 -0.20197,1.08799 0.87855778,0.76484455 63.074447 0 0 0.36607,0.38995 c 0.21343,0.016 0.44026,0 0.67923,-0.052 0.0868,-0.023 0.15639,-0.044 0.23343,-0.066 a 0.87855778,0.76484455 63.074447 0 0 0.0817,-0.97074 l -0.007,-0.0131 a 0.87855778,0.76484455 63.074447 0 0 -0.44435,-0.42548 c -0.21298,-0.003 -0.44789,0.0118 -0.70737,0.0499 z"
         style="display:inline;opacity:1;fill:#000000;stroke:none;stroke-width:0.17280796px;stroke-linecap:butt;stroke-linejoin:miter;stroke-opacity:1" />
      <path
         transform="rotate(-8.8236514)"
         d="m -119.43543,993.32001 a 0.24464437,0.23723088 0 0 1 -0.24363,0.23723 0.24464437,0.23723088 0 0 1 -0.24565,-0.23526 0.24464437,0.23723088 0 0 1 0.24158,-0.23919 0.24464437,0.23723088 0 0 1 0.24766,0.23327"
         sodipodi:open="true"
         sodipodi:end="6.2665523"
         sodipodi:start="0"
         sodipodi:ry="0.23723088"
         sodipodi:rx="0.24464437"
         sodipodi:cy="993.32001"
         sodipodi:cx="-119.68008"
         sodipodi:type="arc"
         id="path193"
         style="display:inline;opacity:1;fill:#ffffff;stroke:none;stroke-width:2.53602624" />
    </g>
    <g
       transform="translate(0,-105.83329)"
       style="display:inline;opacity:1"
       id="g329">
      <path
         id="path58"
         d="m 40.880369,999.0291 c 0,0 0.19841,-1.46408 2.5985,-1.882 1.44231,-0.2511 1.9467,0.225 1.9467,0.225 0,0 -0.11606,0.0725 -0.18647,0.17571 -0.26827,0.3933 -0.96747,1.37273 -2.23283,1.50284 -1.54872,0.11185 -1.82851,-0.0613 -1.82851,-0.0613 z"
         style="display:inline;opacity:1;fill:#f9f9f9;stroke:#1a1a1a;stroke-width:0.20062876px;stroke-linecap:butt;stroke-linejoin:miter;stroke-opacity:1"
         inkscape:connector-curvature="0" />
      <path
         inkscape:connector-curvature="0"
         id="path177"
         d="m 42.876829,997.2895 c -0.23302,0.0682 -0.44049,0.14635 -0.6225,0.23257 a 0.93541545,0.81434301 80.047871 0 0 -0.22584,0.84177 0.93541545,0.81434301 80.047871 0 0 0.52586,0.71243 c 0.13887,-0.006 0.28462,-0.0137 0.45183,-0.0258 0.10124,-0.0104 0.19779,-0.0278 0.29184,-0.0483 a 0.93541545,0.81434301 80.047871 0 0 0.33309,-0.92757 l -0.003,-0.0154 a 0.93541545,0.81434301 80.047871 0 0 -0.75168,-0.76962 z"
         style="display:inline;opacity:1;fill:#000000;stroke:none;stroke-width:0.20062876px;stroke-linecap:butt;stroke-linejoin:miter;stroke-opacity:1" />
      <path
         transform="rotate(3.4507963)"
         d="m 103.07481,994.35376 a 0.23850764,0.24552257 0 0 1 -0.23751,0.24552 0.23850764,0.24552257 0 0 1 -0.2395,-0.24348 0.23850764,0.24552257 0 0 1 0.23553,-0.24754 0.23850764,0.24552257 0 0 1 0.24145,0.24142"
         sodipodi:open="true"
         sodipodi:end="6.2665523"
         sodipodi:start="0"
         sodipodi:ry="0.24552257"
         sodipodi:rx="0.23850764"
         sodipodi:cy="994.35376"
         sodipodi:cx="102.8363"
         sodipodi:type="arc"
         id="path195"
         style="display:inline;opacity:1;fill:#ffffff;stroke:none;stroke-width:2.39969397" />
    </g>
    <path
       style="display:inline;opacity:1;fill:#1a1a1a;stroke:none;stroke-width:0.79375005"
       id="path5004"
       sodipodi:type="arc"
       sodipodi:cx="316.24353"
       sodipodi:cy="840.26123"
       sodipodi:rx="0.25631511"
       sodipodi:ry="0.13642578"
       sodipodi:start="0"
       sodipodi:end="6.2665523"
       sodipodi:open="true"
       d="m 316.49985,840.26123 a 0.25631511,0.13642578 0 0 1 -0.25525,0.13643 0.25631511,0.13642578 0 0 1 -0.25738,-0.13529 0.25631511,0.13642578 0 0 1 0.25311,-0.13755 0.25631511,0.13642578 0 0 1 0.25948,0.13414"
       transform="rotate(18.120316)" />
    <path
       transform="rotate(-37.380092)"
       d="m -513.7596,736.13208 a 0.19395573,0.10323449 0 0 1 -0.19315,0.10323 0.19395573,0.10323449 0 0 1 -0.19475,-0.10237 0.19395573,0.10323449 0 0 1 0.19153,-0.10409 0.19395573,0.10323449 0 0 1 0.19635,0.10151"
       sodipodi:open="true"
       sodipodi:end="6.2665523"
       sodipodi:start="0"
       sodipodi:ry="0.10323449"
       sodipodi:rx="0.19395573"
       sodipodi:cy="736.13208"
       sodipodi:cx="-513.95355"
       sodipodi:type="arc"
       id="path5006"
       style="display:inline;opacity:1;fill:#1a1a1a;stroke:none;stroke-width:0.60063714" />
    <path
       sodipodi:nodetypes="cccc"
       inkscape:connector-curvature="0"
       id="path1243"
       d="m 50.630309,870.51103 c 1.08257,-2.2705 1.77368,-4.66685 1.77368,-4.66685 0,0 2.95366,0.59183 4.84502,6.02687 0,0 -0.97855,-0.82446 -6.6187,-1.36002 z"
       style="display:inline;opacity:1;fill:#e6e6e6;stroke:none;stroke-width:0.15180719px;stroke-linecap:butt;stroke-linejoin:miter;stroke-opacity:1" />
    <path
       style="fill:none;stroke:#000000;stroke-width:0.26458335px;stroke-linecap:butt;stroke-linejoin:miter;stroke-opacity:1"
       d="m 0,857.32941 v 0"
       id="path12304"
       inkscape:connector-curvature="0" />
    <path
       style="fill:none;stroke:#000000;stroke-width:0.26458335px;stroke-linecap:butt;stroke-linejoin:miter;stroke-opacity:1"
       d="m 27.252084,876.11482 c -1.058333,0.26459 -2.910417,-0.52916 -3.175,-1.5875"
       id="path12306"
       inkscape:connector-curvature="0"
       sodipodi:nodetypes="cc" />
    <path
       style="fill:none;stroke:#000000;stroke-width:0.26458335px;stroke-linecap:butt;stroke-linejoin:miter;stroke-opacity:1"
       d="m 27.516667,875.58566 c -2.116666,-0.79375 -2.38125,-2.11667 -2.38125,-2.11667"
       id="path12308"
       inkscape:connector-curvature="0"
       sodipodi:nodetypes="cc" />
    <path
       style="fill:none;stroke:#000000;stroke-width:0.26458335px;stroke-linecap:butt;stroke-linejoin:miter;stroke-opacity:1"
       d="m 52.652085,870.29399 c 0,0 1.322916,-1.05833 0.264583,-3.175"
       id="path12310"
       inkscape:connector-curvature="0"
       sodipodi:nodetypes="cc" />
    <path
       style="fill:none;stroke:#000000;stroke-width:0.26458335px;stroke-linecap:butt;stroke-linejoin:miter;stroke-opacity:1"
       d="m 53.445835,870.55857 c 0,0 1.597553,-1.22425 1.058333,-2.64583"
       id="path12312"
       inkscape:connector-curvature="0"
       sodipodi:nodetypes="cc" />
    <path
       style="display:inline;opacity:1;fill:#b3b3b3;stroke:none;stroke-width:0.26458335px;stroke-linecap:butt;stroke-linejoin:miter;stroke-opacity:1"
       d="m -0.002923,934.70861 1.645725,4.7328 54.302487,2.9467 -0.14251,-5.2207 z"
       id="path5012"
       inkscape:connector-curvature="0" />
    <path
       style="display:inline;opacity:1;fill:#808080;stroke:none;stroke-width:0.26458335px;stroke-linecap:butt;stroke-linejoin:miter;stroke-opacity:1"
       d="m 55.945289,942.38811 20.01849,-14.2655 -0.15757,-4.5045 -20.00343,13.5493 z"
       id="path5014"
       inkscape:connector-curvature="0" />
  </g>
</svg>
